# xmcd
#
# Track frame offsets:
# 150
# 11092
# 24131
# 39122
# 56830
# 70944
# 81359
# 90582
# 104006
# 119534
#
# Disc length: 2153 seconds
#
# Revision: 0
# Processed by: cddbd v1.5.2PL0 Copyright (c) Steve Scherf et al.
# Submitted via: Audion 3.0.2 (http://www.panic.com/audion/)
#
DISCID=7c08670a
DTITLE=Live 070203 - Tom Constanten - Live 070203
DYEAR=1900
DGENRE=
TTITLE0=People Get Ready
TTITLE1=Morning Dew
TTITLE2=Wooly Bully
TTITLE3=Amazing House
TTITLE4=Consolation #3
TTITLE5=In My Life
TTITLE6=DeJavales
TTITLE7=The Fat Angel
TTITLE8=Wolf Tower - Mountians of the Moon
TTITLE9=Darkstar - The Ritual Dance - Darkstar
EXTD=
EXTT0=
EXTT1=
EXTT2=
EXTT3=
EXTT4=
EXTT5=
EXTT6=
EXTT7=
EXTT8=
EXTT9=
PLAYORDER=
